# xmcd CD database file
#
# Track frame offsets:
#	150
#	23190
#	38947
#	64177
#	81170
#	102405
#	112747
#	134737
#	154560
#	180290
#	198015
#	220825
#	236660
#	254457
#
# Disc length: 3573 seconds
#
# Revision: 1
# Processed by: cddbd v1.5.1PL2 Copyright (c) Steve Scherf et al.
# Submitted via: CDex 1.51
#
DISCID=b80df30e
DTITLE=Various Artist - 100 Songs You Know And Love [CD1]
DYEAR=1900
DGENRE=Country
TTITLE0=Shine On Harvest Moon/ Somebody Else Is Taking My Place - Who's Sorry Now - On The Sunnyside Of The Street - I'll Be With You In Apple Blossom Time
TTITLE1=Sweet Georgia Brown - Wont You Come Home Billy Bailey - It's A Long Way To Tipperary - There Is A Tavern In The Town - Give My Regards To Broadway
TTITLE2=You Will Never Grow Old - Thats An Irish Lullaby - When I Grow To Old To Dream/ Down In The Valley
TTITLE3=If Those Lips Could Only Speak - Darktown Strutter's Ball - Chattanooga Shoe Shine Boy - Write Myself A Letter - Chattanooga Choo Choo - Alexander's Rag Time Band
TTITLE4=I'll Take You Home Again Kathleen
TTITLE5=Hey Good Looking
TTITLE6=Lady Of Spain - Around The World - Yours Till The Stars Lose Their Glory - South Of The Border - Jamaican Farewell
TTITLE7=Side By Side/ Walking My Baby Back Home/ Show Me The Way To Go Home/ When The Red Red Robin/ The Bells Are Ringing For Me And My Gal
TTITLE8=When It's Springtime In The Rockies/My Bonnie Lies Over The Qcean/ A Mother As Lovely As You/ Somewhere My Love/ Suva Bay
TTITLE9=Somebody Stole My Girl - I'm Sitting On Top Of The World - Swanee - Don't Sit Under The Apple Tree - A Shanty In Old Shanty Town
TTITLE10=You Are My Sunshine/ Ther's A Bridle Hanging On The Wall/ Seems I Always Have To Slip Around/ Buttons And Bows/ Red River Valley
TTITLE11=Your Cheating Heart/ Cold Cold Heart/ Half As Much
TTITLE12=Mountains Of Mourne
TTITLE13=Any Time You Feel Lucky
EXTD=
EXTT0=
EXTT1=
EXTT2=
EXTT3=
EXTT4=
EXTT5=
EXTT6=
EXTT7=
EXTT8=
EXTT9=
EXTT10=
EXTT11=
EXTT12=
EXTT13=
PLAYORDER=
